<svg version="1.1" id="Layer_1" xmlns="http://www.w3.org/2000/svg" xmlns:xlink="http://www.w3.org/1999/xlink" x="0px" y="0px"
	 width="100%" viewBox="0 0 510 198" enable-background="new 0 0 510 198" xml:space="preserve">
<path fill="#FDFEFD" opacity="1.000000" stroke="none" 
	d="
M317.000000,199.000000 
	C211.333359,199.000000 106.166702,199.000000 1.000042,199.000000 
	C1.000028,133.000031 1.000028,67.000061 1.000014,1.000069 
	C170.999939,1.000046 340.999878,1.000046 510.999878,1.000023 
	C510.999908,66.999931 510.999908,132.999863 510.999939,198.999893 
	C446.500000,199.000000 382.000000,199.000000 317.000000,199.000000 
M147.926788,127.068275 
	C148.246475,116.051414 148.566147,105.034546 149.407898,93.556099 
	C149.980972,92.338341 150.554062,91.120583 152.040863,90.011551 
	C155.945251,90.011551 159.849655,90.011551 164.385788,90.011551 
	C163.511581,114.391258 162.649048,138.445114 161.776398,162.781250 
	C169.973618,162.781250 178.040283,162.781250 185.794403,162.781250 
	C185.794403,138.494247 185.794403,114.446144 185.794403,89.941879 
	C190.592361,90.456841 195.147736,90.945770 199.652481,91.429268 
	C199.652481,83.071136 199.652481,75.022835 199.652481,66.887726 
	C194.923828,66.887726 190.689987,66.887726 186.285690,66.887726 
	C186.868393,56.450275 187.429901,46.392559 187.992889,36.308491 
	C179.649139,36.308491 171.766220,36.308491 163.851471,36.308491 
	C163.851471,46.766914 163.851471,56.856083 163.851471,66.648125 
	C159.520187,67.068741 155.517059,67.457497 151.019638,67.875870 
	C150.686523,68.214096 150.353394,68.552322 149.081818,68.832695 
	C140.340652,68.832695 131.599472,68.832695 123.534912,68.832695 
	C124.512115,100.801079 125.462082,131.878464 126.409645,162.877106 
	C133.248856,162.877106 140.305267,162.877106 147.885742,162.877106 
	C147.885742,156.615295 147.885742,150.816513 148.443741,144.406403 
	C148.301697,138.938309 148.159668,133.470230 147.926788,127.068275 
M242.325470,122.368668 
	C246.039246,118.817589 250.293839,115.676781 253.360275,111.634621 
	C261.017578,101.540756 263.377533,90.214653 258.134277,78.285583 
	C253.671082,68.131226 245.108566,63.480080 234.302856,63.009396 
	C222.574020,62.498501 213.859207,67.892334 207.775925,77.668571 
	C202.998322,85.346497 201.156082,93.975899 200.502563,102.852806 
	C199.353409,118.461311 199.895844,133.942383 207.458054,148.126175 
	C213.003265,158.526779 221.623413,164.695694 233.965057,164.468048 
	C245.085236,164.262939 254.085892,159.990463 259.608307,150.119171 
	C263.329041,143.468353 263.371796,136.362381 259.459412,129.616791 
	C255.705597,123.144577 249.583725,123.140747 242.703827,123.821884 
	C242.458328,123.524384 242.212830,123.226875 242.325470,122.368668 
M360.825592,124.729103 
	C362.327240,128.718735 364.214478,132.611389 365.247406,136.718887 
	C367.183502,144.417969 368.625061,152.241440 370.222290,159.777008 
	C379.834717,159.777008 388.387695,159.777008 396.528656,159.777008 
	C393.856598,154.219116 390.768982,148.930496 388.752228,143.260956 
	C386.983002,138.287323 386.253845,132.914124 385.351898,127.668129 
	C383.803009,118.659645 380.169617,111.198799 370.800171,107.405197 
	C380.745636,96.085754 388.506653,83.856697 394.677277,69.900200 
	C389.404846,69.439346 384.768188,69.171005 380.168213,68.604729 
	C369.113068,67.243782 369.153564,67.199364 365.490662,77.483757 
	C362.430206,86.076706 358.412720,94.154266 352.779755,101.322952 
	C352.322113,101.230293 351.864471,101.137642 351.406860,101.044983 
	C352.392822,79.547150 353.378784,58.049313 354.381104,36.195484 
	C346.301239,36.195484 338.247040,36.195484 329.933167,36.195484 
	C329.933167,77.821632 329.933167,119.307335 329.933167,160.890686 
	C336.721161,160.890686 344.315094,160.890686 352.082458,160.890686 
	C352.082458,147.256073 352.082458,133.887848 352.082458,119.190369 
	C355.405396,121.208328 357.861603,122.699959 360.825592,124.729103 
M424.500366,105.029335 
	C418.736572,108.647270 412.897400,112.151283 407.224487,115.906540 
	C394.894440,124.068596 390.529388,139.386414 396.673737,152.370209 
	C399.701538,158.768387 404.752777,162.211777 411.741211,163.157883 
	C419.483063,164.205948 426.036346,161.638550 432.094666,155.969833 
	C432.816345,158.593796 433.282227,160.287827 433.873993,162.439453 
	C441.196869,162.076904 448.407196,161.719925 454.598938,161.413376 
	C454.328125,141.113403 454.098206,121.531822 453.777588,101.951721 
	C453.717773,98.299721 453.537445,94.617325 452.998413,91.010887 
	C449.932678,70.499382 434.595428,60.184280 414.440155,64.956764 
	C398.167572,68.809875 389.873444,84.965042 397.423218,98.102127 
	C401.145691,104.579445 408.564911,106.620773 415.023804,102.944687 
	C420.789886,99.662926 422.627472,92.152756 419.174561,85.933846 
	C418.546814,84.803246 417.869537,83.700127 417.221466,82.595139 
	C424.281952,77.979271 428.905670,79.958923 431.214417,87.549019 
	C433.500702,95.065231 430.051819,99.972534 424.500366,105.029335 
M58.769497,142.188644 
	C61.315823,153.225525 70.067070,161.314056 81.614014,163.024704 
	C94.198090,164.889023 105.608849,163.271484 113.102318,151.357132 
	C121.300415,138.322418 119.004547,123.764450 106.713921,112.092918 
	C101.408348,107.054596 95.667191,102.478104 90.224495,97.580048 
	C85.663239,93.475235 83.915955,88.257973 85.002625,82.225082 
	C86.163246,75.781662 91.747040,73.688835 97.303139,77.676399 
	C96.500229,78.901085 95.556274,80.065849 94.909264,81.377129 
	C92.567291,86.123566 92.015800,90.908188 95.020470,95.629646 
	C97.956322,100.242966 102.120293,102.532341 107.624489,102.051109 
	C114.479485,101.451782 120.016182,95.201149 120.480064,87.655640 
	C121.492332,71.189919 110.298088,59.808876 93.112312,59.831226 
	C70.876671,59.860138 57.212208,78.904129 64.872337,99.820786 
	C66.765678,104.990723 70.074646,109.878571 73.637566,114.139603 
	C77.884430,119.218567 83.110489,123.477692 87.902313,128.102386 
	C91.555321,131.627975 93.874474,135.782867 93.110367,141.007874 
	C92.566406,144.727539 90.722954,147.366074 85.910583,147.108383 
	C86.370819,145.976303 86.669312,145.259567 86.954613,144.537613 
	C90.822632,134.749496 84.756744,125.164734 74.352310,124.622398 
	C64.177910,124.092049 59.082081,129.529495 58.769497,142.188644 
M288.580109,128.825928 
	C287.502838,113.101913 286.984375,97.495087 297.606079,84.222099 
	C298.010529,85.290253 297.817871,86.235458 297.638977,87.183266 
	C296.051788,95.593369 299.832581,102.761993 306.924133,104.793266 
	C314.845154,107.062126 322.364014,103.342384 325.658417,95.525063 
	C329.921051,85.410141 327.814117,74.247200 320.452972,67.945274 
	C313.253937,61.782146 301.727356,61.492294 292.393707,66.989754 
	C290.945038,67.843025 288.906372,67.841759 287.122864,67.953400 
	C280.209106,68.386192 273.288177,68.704926 266.350342,69.067154 
	C266.350342,101.035225 266.350342,132.410889 266.350342,164.207245 
	C273.842468,163.634460 282.026581,163.008759 290.491028,162.361649 
	C289.848694,151.018799 289.246948,140.392624 288.580109,128.825928 
M123.930672,39.669228 
	C120.486938,46.565166 120.989464,51.985088 125.555511,57.193657 
	C129.365021,61.539223 135.344864,63.151581 140.418396,61.201160 
	C146.485886,58.868633 150.204163,53.686695 150.231476,47.525314 
	C150.260132,41.060986 146.838608,36.199074 140.606171,33.847965 
	C134.703201,31.621145 129.406281,33.304012 123.930672,39.669228 
z"/>
<path fill="#21442D" opacity="1.000000" stroke="none" 
	d="
M360.571716,124.460342 
	C357.861603,122.699959 355.405396,121.208328 352.082458,119.190369 
	C352.082458,133.887848 352.082458,147.256073 352.082458,160.890686 
	C344.315094,160.890686 336.721161,160.890686 329.933167,160.890686 
	C329.933167,119.307335 329.933167,77.821632 329.933167,36.195484 
	C338.247040,36.195484 346.301239,36.195484 354.381104,36.195484 
	C353.378784,58.049313 352.392822,79.547150 351.406860,101.044983 
	C351.864471,101.137642 352.322113,101.230293 352.779755,101.322952 
	C358.412720,94.154266 362.430206,86.076706 365.490662,77.483757 
	C369.153564,67.199364 369.113068,67.243782 380.168213,68.604729 
	C384.768188,69.171005 389.404846,69.439346 394.677277,69.900200 
	C388.506653,83.856697 380.745636,96.085754 370.800171,107.405197 
	C380.169617,111.198799 383.803009,118.659645 385.351898,127.668129 
	C386.253845,132.914124 386.983002,138.287323 388.752228,143.260956 
	C390.768982,148.930496 393.856598,154.219116 396.528656,159.777008 
	C388.387695,159.777008 379.834717,159.777008 370.222290,159.777008 
	C368.625061,152.241440 367.183502,144.417969 365.247406,136.718887 
	C364.214478,132.611389 362.327240,128.718735 360.571716,124.460342 
z"/>
<path fill="#21442C" opacity="1.000000" stroke="none" 
	d="
M424.774902,104.801117 
	C430.051819,99.972534 433.500702,95.065231 431.214417,87.549019 
	C428.905670,79.958923 424.281952,77.979271 417.221466,82.595139 
	C417.869537,83.700127 418.546814,84.803246 419.174561,85.933846 
	C422.627472,92.152756 420.789886,99.662926 415.023804,102.944687 
	C408.564911,106.620773 401.145691,104.579445 397.423218,98.102127 
	C389.873444,84.965042 398.167572,68.809875 414.440155,64.956764 
	C434.595428,60.184280 449.932678,70.499382 452.998413,91.010887 
	C453.537445,94.617325 453.717773,98.299721 453.777588,101.951721 
	C454.098206,121.531822 454.328125,141.113403 454.598938,161.413376 
	C448.407196,161.719925 441.196869,162.076904 433.873993,162.439453 
	C433.282227,160.287827 432.816345,158.593796 432.094666,155.969833 
	C426.036346,161.638550 419.483063,164.205948 411.741211,163.157883 
	C404.752777,162.211777 399.701538,158.768387 396.673737,152.370209 
	C390.529388,139.386414 394.894440,124.068596 407.224487,115.906540 
	C412.897400,112.151283 418.736572,108.647270 424.774902,104.801117 
M430.215820,121.448486 
	C427.712280,123.347984 425.025970,125.053886 422.754333,127.198982 
	C420.258118,129.556183 417.348053,131.995621 416.127594,135.010239 
	C415.233490,137.218643 416.307953,140.650818 417.511780,143.027679 
	C417.884155,143.762878 421.989990,143.528961 423.652893,142.524445 
	C429.871094,138.768097 433.128235,128.621613 430.215820,121.448486 
z"/>
<path fill="#20442C" opacity="1.000000" stroke="none" 
	d="
M243.215073,124.109314 
	C249.583725,123.140747 255.705597,123.144577 259.459412,129.616791 
	C263.371796,136.362381 263.329041,143.468353 259.608307,150.119171 
	C254.085892,159.990463 245.085236,164.262939 233.965057,164.468048 
	C221.623413,164.695694 213.003265,158.526779 207.458054,148.126175 
	C199.895844,133.942383 199.353409,118.461311 200.502563,102.852806 
	C201.156082,93.975899 202.998322,85.346497 207.775925,77.668571 
	C213.859207,67.892334 222.574020,62.498501 234.302856,63.009396 
	C245.108566,63.480080 253.671082,68.131226 258.134277,78.285583 
	C263.377533,90.214653 261.017578,101.540756 253.360275,111.634621 
	C250.293839,115.676781 246.039246,118.817589 241.799377,122.715523 
	C236.037842,125.803864 230.802383,128.545349 225.511337,131.315948 
	C226.337433,142.253082 230.601242,151.772995 237.535217,146.859589 
	C231.681900,135.764771 232.946014,130.701431 243.215073,124.109314 
M224.803757,101.188103 
	C224.803757,105.070442 224.803757,108.952774 224.803757,112.976128 
	C234.807281,107.925865 240.604797,95.977341 237.799225,85.739586 
	C237.194839,83.534065 234.885193,81.795845 233.361053,79.842369 
	C231.500961,81.451149 228.614716,82.735161 227.982574,84.732559 
	C226.396652,89.743683 225.830597,95.077560 224.803757,101.188103 
z"/>
<path fill="#20442C" opacity="1.000000" stroke="none" 
	d="
M58.740406,141.750290 
	C59.082081,129.529495 64.177910,124.092049 74.352310,124.622398 
	C84.756744,125.164734 90.822632,134.749496 86.954613,144.537613 
	C86.669312,145.259567 86.370819,145.976303 85.910583,147.108383 
	C90.722954,147.366074 92.566406,144.727539 93.110367,141.007874 
	C93.874474,135.782867 91.555321,131.627975 87.902313,128.102386 
	C83.110489,123.477692 77.884430,119.218567 73.637566,114.139603 
	C70.074646,109.878571 66.765678,104.990723 64.872337,99.820786 
	C57.212208,78.904129 70.876671,59.860138 93.112312,59.831226 
	C110.298088,59.808876 121.492332,71.189919 120.480064,87.655640 
	C120.016182,95.201149 114.479485,101.451782 107.624489,102.051109 
	C102.120293,102.532341 97.956322,100.242966 95.020470,95.629646 
	C92.015800,90.908188 92.567291,86.123566 94.909264,81.377129 
	C95.556274,80.065849 96.500229,78.901085 97.303139,77.676399 
	C91.747040,73.688835 86.163246,75.781662 85.002625,82.225082 
	C83.915955,88.257973 85.663239,93.475235 90.224495,97.580048 
	C95.667191,102.478104 101.408348,107.054596 106.713921,112.092918 
	C119.004547,123.764450 121.300415,138.322418 113.102318,151.357132 
	C105.608849,163.271484 94.198090,164.889023 81.614014,163.024704 
	C70.067070,161.314056 61.315823,153.225525 58.740406,141.750290 
z"/>
<path fill="#20432C" opacity="1.000000" stroke="none" 
	d="
M151.513916,67.846252 
	C155.517059,67.457497 159.520187,67.068741 163.851471,66.648125 
	C163.851471,56.856083 163.851471,46.766914 163.851471,36.308491 
	C171.766220,36.308491 179.649139,36.308491 187.992889,36.308491 
	C187.429901,46.392559 186.868393,56.450275 186.285690,66.887726 
	C190.689987,66.887726 194.923828,66.887726 199.652481,66.887726 
	C199.652481,75.022835 199.652481,83.071136 199.652481,91.429268 
	C195.147736,90.945770 190.592361,90.456841 185.794403,89.941879 
	C185.794403,114.446144 185.794403,138.494247 185.794403,162.781250 
	C178.040283,162.781250 169.973618,162.781250 161.776398,162.781250 
	C162.649048,138.445114 163.511581,114.391258 164.385788,90.011551 
	C159.849655,90.011551 155.945251,90.011551 151.573898,89.516396 
	C151.242584,81.962914 151.378250,74.904579 151.513916,67.846252 
z"/>
<path fill="#21442C" opacity="1.000000" stroke="none" 
	d="
M288.612671,129.296173 
	C289.246948,140.392624 289.848694,151.018799 290.491028,162.361649 
	C282.026581,163.008759 273.842468,163.634460 266.350342,164.207245 
	C266.350342,132.410889 266.350342,101.035225 266.350342,69.067154 
	C273.288177,68.704926 280.209106,68.386192 287.122864,67.953400 
	C288.906372,67.841759 290.945038,67.843025 292.393707,66.989754 
	C301.727356,61.492294 313.253937,61.782146 320.452972,67.945274 
	C327.814117,74.247200 329.921051,85.410141 325.658417,95.525063 
	C322.364014,103.342384 314.845154,107.062126 306.924133,104.793266 
	C299.832581,102.761993 296.051788,95.593369 297.638977,87.183266 
	C297.817871,86.235458 298.010529,85.290253 297.606079,84.222099 
	C286.984375,97.495087 287.502838,113.101913 288.612671,129.296173 
z"/>
<path fill="#20442C" opacity="1.000000" stroke="none" 
	d="
M148.885834,94.017685 
	C148.566147,105.034546 148.246475,116.051414 147.803741,127.901474 
	C147.749054,134.162354 147.817398,139.590042 147.885742,145.017731 
	C147.885742,150.816513 147.885742,156.615295 147.885742,162.877106 
	C140.305267,162.877106 133.248856,162.877106 126.409645,162.877106 
	C125.462082,131.878464 124.512115,100.801079 123.534912,68.832695 
	C131.599472,68.832695 140.340652,68.832695 149.600677,69.309586 
	C149.708313,77.863548 149.297073,85.940613 148.885834,94.017685 
z"/>
<path fill="#20442C" opacity="1.000000" stroke="none" 
	d="
M124.131531,39.343742 
	C129.406281,33.304012 134.703201,31.621145 140.606171,33.847965 
	C146.838608,36.199074 150.260132,41.060986 150.231476,47.525314 
	C150.204163,53.686695 146.485886,58.868633 140.418396,61.201160 
	C135.344864,63.151581 129.365021,61.539223 125.555511,57.193657 
	C120.989464,51.985088 120.486938,46.565166 124.131531,39.343742 
z"/>
<path fill="#EEF0EF" opacity="1.000000" stroke="none" 
	d="
M242.959442,123.965599 
	C232.946014,130.701431 231.681900,135.764771 237.535217,146.859589 
	C230.601242,151.772995 226.337433,142.253082 225.511337,131.315948 
	C230.802383,128.545349 236.037842,125.803864 241.620300,122.995880 
	C242.212830,123.226875 242.458328,123.524384 242.959442,123.965599 
z"/>
<path fill="#BFC9C3" opacity="1.000000" stroke="none" 
	d="
M149.146866,93.786896 
	C149.297073,85.940613 149.708313,77.863548 150.069901,69.338516 
	C150.353394,68.552322 150.686523,68.214096 151.266785,67.861061 
	C151.378250,74.904579 151.242584,81.962914 151.117035,89.462036 
	C150.554062,91.120583 149.980972,92.338341 149.146866,93.786896 
z"/>
<path fill="#BFC9C3" opacity="1.000000" stroke="none" 
	d="
M148.164734,144.712067 
	C147.817398,139.590042 147.749054,134.162354 147.849167,128.368408 
	C148.159668,133.470230 148.301697,138.938309 148.164734,144.712067 
z"/>
<path fill="#F1F3F2" opacity="1.000000" stroke="none" 
	d="
M430.590637,121.361679 
	C433.128235,128.621613 429.871094,138.768097 423.652893,142.524445 
	C421.989990,143.528961 417.884155,143.762878 417.511780,143.027679 
	C416.307953,140.650818 415.233490,137.218643 416.127594,135.010239 
	C417.348053,131.995621 420.258118,129.556183 422.754333,127.198982 
	C425.025970,125.053886 427.712280,123.347984 430.590637,121.361679 
z"/>
<path fill="#F3F5F3" opacity="1.000000" stroke="none" 
	d="
M224.829620,100.735046 
	C225.830597,95.077560 226.396652,89.743683 227.982574,84.732559 
	C228.614716,82.735161 231.500961,81.451149 233.361053,79.842369 
	C234.885193,81.795845 237.194839,83.534065 237.799225,85.739586 
	C240.604797,95.977341 234.807281,107.925865 224.803757,112.976128 
	C224.803757,108.952774 224.803757,105.070442 224.829620,100.735046 
z"/>
</svg>