<svg version="1.1" id="Layer_1"
    xmlns="http://www.w3.org/2000/svg"
    xmlns:xlink="http://www.w3.org/1999/xlink" x="0px" y="0px" width="100%" viewBox="0 0 404 136" enable-background="new 0 0 404 136" xml:space="preserve">
    <path fill="#FBFBFB" opacity="1.000000" stroke="none" d="
M268.000000,137.000000 
	C178.666687,137.000000 89.833374,137.000000 1.000048,137.000000 
	C1.000032,91.666702 1.000032,46.333397 1.000016,1.000072 
	C135.666611,1.000048 270.333221,1.000048 404.999878,1.000024 
	C404.999908,46.333256 404.999908,91.666512 404.999939,136.999878 
	C359.500000,137.000000 314.000000,137.000000 268.000000,137.000000 
M95.751572,60.994331 
	C96.215691,60.963840 96.679802,60.933346 98.013321,61.004036 
	C101.936798,61.004036 105.860283,61.004036 110.389442,61.004036 
	C109.521484,85.397263 108.661865,109.556046 107.798920,133.808411 
	C116.206963,133.808411 124.131432,133.808411 131.784958,133.808411 
	C131.784958,109.516869 131.784958,85.472450 131.784958,60.946342 
	C136.556412,61.454624 141.113876,61.940113 145.658447,62.424225 
	C145.658447,54.103065 145.658447,46.049652 145.658447,37.883087 
	C140.957642,37.883087 136.734055,37.883087 132.276443,37.883087 
	C132.856186,27.443859 133.414291,17.394356 133.973984,7.316395 
	C125.658417,7.316395 117.776253,7.316395 109.861961,7.316395 
	C109.861961,17.775015 109.861961,27.863499 109.861961,37.656658 
	C105.530975,38.075603 101.528152,38.462811 97.029968,38.887917 
	C96.692688,39.226452 96.355415,39.564991 95.080170,39.841797 
	C86.343559,39.841797 77.606941,39.841797 69.549759,39.841797 
	C70.526154,71.803627 71.475311,102.873886 72.422012,133.863800 
	C79.252083,133.863800 86.304840,133.863800 93.952797,133.863800 
	C93.952797,123.933731 93.952797,114.470566 94.459221,104.460999 
	C94.311562,102.307991 94.163902,100.154984 93.929054,97.067841 
	C94.304169,85.052971 94.679283,73.038094 95.751572,60.994331 
M243.929672,54.908417 
	C243.929672,54.908417 243.896347,54.851482 244.249573,55.632721 
	C244.096359,56.280121 243.930420,56.924809 243.791840,57.575329 
	C241.941055,66.263786 245.558701,73.552200 252.800339,75.732307 
	C261.003998,78.202034 268.753784,74.161308 271.969574,65.737534 
	C275.838776,55.602077 273.514893,44.755135 266.188110,38.752247 
	C258.933868,32.808796 247.524918,32.499828 238.596329,37.942993 
	C237.399384,38.672703 236.040878,39.592312 234.739624,39.620785 
	C227.365982,39.782104 219.987015,39.698841 212.369858,39.698841 
	C212.369858,71.881088 212.369858,103.345123 212.369858,135.208694 
	C219.862061,134.622925 228.023743,133.984818 236.492661,133.322678 
	C235.788727,121.244637 235.173889,109.967842 234.462509,98.697151 
	C233.768204,87.696869 233.139114,76.645042 237.239441,66.149590 
	C238.800262,62.154411 241.685287,58.676567 243.929672,54.908417 
M188.708633,94.825401 
	C188.460739,94.524513 188.212860,94.223633 188.320755,93.361794 
	C192.032959,89.811653 196.292404,86.675186 199.350098,82.630280 
	C207.109711,72.365341 209.425964,60.896019 203.913879,48.842243 
	C199.386505,38.941795 190.877609,34.486633 180.306183,34.019363 
	C168.585953,33.501320 159.866623,38.892593 153.788086,48.667652 
	C148.920868,56.494743 147.091904,65.295319 146.474030,74.339272 
	C145.408020,89.942795 145.969437,105.415199 153.706879,119.532860 
	C159.282349,129.705780 167.816452,135.672974 179.943039,135.442368 
	C191.062057,135.230911 200.054901,131.001511 205.582703,121.130524 
	C209.307297,114.479553 209.359650,107.388733 205.456589,100.638107 
	C201.709412,94.157135 195.593216,94.154243 188.708633,94.825401 
M290.453339,6.944428 
	C285.678253,6.944428 280.903198,6.944428 275.949646,6.944428 
	C275.949646,48.784546 275.949646,90.172600 275.949646,131.833954 
	C282.550781,131.833954 290.276337,131.833954 298.150391,131.833954 
	C298.150391,118.166656 298.150391,104.815704 298.150391,91.385170 
	C305.935242,92.873230 309.631409,97.401619 311.183655,106.111092 
	C312.665131,114.423317 314.509888,122.670807 316.162781,130.788635 
	C325.798004,130.788635 334.351837,130.788635 342.529175,130.788635 
	C339.858124,125.240044 336.767700,119.953873 334.749023,114.285988 
	C332.977173,109.311073 332.242584,103.936409 331.342316,98.688141 
	C329.795868,89.672783 326.163818,82.207443 316.797729,78.412788 
	C326.711029,67.075462 334.522675,54.875683 340.543823,41.112900 
	C337.349152,40.685074 334.726135,40.286888 332.091431,39.994141 
	C329.446594,39.700268 326.772949,39.631142 324.141785,39.254951 
	C315.046173,37.954514 315.077637,37.928967 312.092194,46.668262 
	C311.123871,49.502850 310.224304,52.403870 308.860748,55.051750 
	C305.801605,60.992329 302.471191,66.793243 299.251221,72.651009 
	C298.630432,72.449928 298.009613,72.248840 297.388794,72.047760 
	C298.378296,50.529663 299.367798,29.011566 300.382202,6.951671 
	C297.350342,6.951671 294.390198,6.951671 290.453339,6.944428 
M386.564850,39.838589 
	C374.531860,32.469971 362.402618,33.209957 350.794739,40.363434 
	C340.563904,46.668293 337.716095,60.079376 343.804871,69.710297 
	C347.638580,75.774284 355.026123,77.523613 361.225342,73.835381 
	C366.717285,70.567955 368.536652,63.143314 365.281677,57.163757 
	C364.656525,56.015278 363.910492,54.932579 363.229736,53.834846 
	C369.673035,48.868965 374.962738,50.738235 377.112305,58.246639 
	C378.849945,64.316147 378.024628,69.661171 372.976105,73.475685 
	C366.911804,78.057655 360.482666,82.175835 354.069946,86.273270 
	C343.799652,92.835510 339.199829,102.117188 340.342407,114.184624 
	C342.093750,132.681595 359.343109,140.531738 374.631195,129.862808 
	C375.746063,129.084793 376.923157,128.396027 378.284363,127.530319 
	C378.886993,129.785370 379.307465,131.358780 379.858459,133.420700 
	C387.173553,133.064194 394.383331,132.712799 401.882751,132.347305 
	C401.504272,129.408127 401.007599,127.143112 400.952057,124.867325 
	C400.517975,107.074219 400.207947,89.278091 399.779266,71.484825 
	C399.490997,59.517963 397.403015,48.230484 386.564850,39.838589 
M55.552311,127.048691 
	C66.627777,113.842308 66.743271,99.305618 55.642872,86.323280 
	C52.955894,83.180756 49.720562,80.495682 46.652164,77.693573 
	C42.843758,74.215683 38.833515,70.952568 35.118507,67.380310 
	C31.061195,63.478905 30.037680,58.464615 31.025541,53.100132 
	C32.206867,46.685062 37.943901,44.657284 43.137634,48.662750 
	C42.051544,50.693504 40.705257,52.629841 39.927734,54.772564 
	C37.513741,61.425110 40.137436,68.451782 46.002270,71.620972 
	C51.783478,74.744957 59.844360,72.810570 63.565792,66.847244 
	C65.160072,64.292534 66.232635,61.004818 66.350060,58.003513 
	C67.001915,41.341560 55.118526,30.258955 38.433224,30.755934 
	C18.121632,31.360924 4.796174,47.521389 9.946479,67.168289 
	C11.608659,73.509018 15.458823,79.602600 19.497801,84.902603 
	C23.587894,90.269676 29.161999,94.502625 34.063541,99.255585 
	C37.719902,102.801117 39.967712,107.023582 39.081387,112.220322 
	C38.463516,115.843025 36.613556,118.544167 31.992228,118.057449 
	C32.276978,117.195259 32.376480,116.715263 32.585255,116.288757 
	C35.483780,110.367332 34.521049,104.886963 30.331287,100.055656 
	C25.804535,94.835739 19.722992,94.648895 13.774086,96.410599 
	C7.570026,98.247871 4.577991,103.513290 5.023105,109.515381 
	C5.372400,114.225380 6.873875,119.442368 9.529524,123.281769 
	C18.819862,136.713303 43.904819,138.745483 55.552311,127.048691 
M87.098305,31.992620 
	C87.962784,31.503416 88.873787,31.080799 89.684387,30.514477 
	C96.195496,25.965492 98.149651,17.847244 94.370544,11.164817 
	C90.723137,4.715259 82.653465,2.215636 75.863945,5.432301 
	C69.321693,8.531818 65.971672,16.464270 68.431816,23.030687 
	C71.278519,30.628841 78.501587,34.334328 87.098305,31.992620 
z"/>
    <path fill="#fefefe" opacity="1.000000" stroke="none" d="
M290.941711,6.948050 
	C294.390198,6.951671 297.350342,6.951671 300.382202,6.951671 
	C299.367798,29.011566 298.378296,50.529663 297.388794,72.047760 
	C298.009613,72.248840 298.630432,72.449928 299.251221,72.651009 
	C302.471191,66.793243 305.801605,60.992329 308.860748,55.051750 
	C310.224304,52.403870 311.123871,49.502850 312.092194,46.668262 
	C315.077637,37.928967 315.046173,37.954514 324.141785,39.254951 
	C326.772949,39.631142 329.446594,39.700268 332.091431,39.994141 
	C334.726135,40.286888 337.349152,40.685074 340.543823,41.112900 
	C334.522675,54.875683 326.711029,67.075462 316.797729,78.412788 
	C326.163818,82.207443 329.795868,89.672783 331.342316,98.688141 
	C332.242584,103.936409 332.977173,109.311073 334.749023,114.285988 
	C336.767700,119.953873 339.858124,125.240044 342.529175,130.788635 
	C334.351837,130.788635 325.798004,130.788635 316.162781,130.788635 
	C314.509888,122.670807 312.665131,114.423317 311.183655,106.111092 
	C309.631409,97.401619 305.935242,92.873230 298.150391,91.385170 
	C298.150391,104.815704 298.150391,118.166656 298.150391,131.833954 
	C290.276337,131.833954 282.550781,131.833954 275.949646,131.833954 
	C275.949646,90.172600 275.949646,48.784546 275.949646,6.944428 
	C280.903198,6.944428 285.678253,6.944428 290.941711,6.948050 
z"/>
    <path fill="#fefefe" opacity="1.000000" stroke="none" d="
M386.855896,40.056824 
	C397.403015,48.230484 399.490997,59.517963 399.779266,71.484825 
	C400.207947,89.278091 400.517975,107.074219 400.952057,124.867325 
	C401.007599,127.143112 401.504272,129.408127 401.882751,132.347305 
	C394.383331,132.712799 387.173553,133.064194 379.858459,133.420700 
	C379.307465,131.358780 378.886993,129.785370 378.284363,127.530319 
	C376.923157,128.396027 375.746063,129.084793 374.631195,129.862808 
	C359.343109,140.531738 342.093750,132.681595 340.342407,114.184624 
	C339.199829,102.117188 343.799652,92.835510 354.069946,86.273270 
	C360.482666,82.175835 366.911804,78.057655 372.976105,73.475685 
	C378.024628,69.661171 378.849945,64.316147 377.112305,58.246639 
	C374.962738,50.738235 369.673035,48.868965 363.229736,53.834846 
	C363.910492,54.932579 364.656525,56.015278 365.281677,57.163757 
	C368.536652,63.143314 366.717285,70.567955 361.225342,73.835381 
	C355.026123,77.523613 347.638580,75.774284 343.804871,69.710297 
	C337.716095,60.079376 340.563904,46.668293 350.794739,40.363434 
	C362.402618,33.209957 374.531860,32.469971 386.855896,40.056824 
M361.235382,107.879547 
	C362.210236,110.163788 362.853851,114.078094 364.235779,114.358887 
	C366.433289,114.805389 369.697784,113.443390 371.497894,111.761826 
	C377.046417,106.578674 378.557037,99.834045 377.407959,91.461555 
	C371.227600,96.477219 364.516235,99.866646 361.235382,107.879547 
z"/>
    <path fill="#fefefe" opacity="1.000000" stroke="none" d="
M189.227249,95.111954 
	C195.593216,94.154243 201.709412,94.157135 205.456589,100.638107 
	C209.359650,107.388733 209.307297,114.479553 205.582703,121.130524 
	C200.054901,131.001511 191.062057,135.230911 179.943039,135.442368 
	C167.816452,135.672974 159.282349,129.705780 153.706879,119.532860 
	C145.969437,105.415199 145.408020,89.942795 146.474030,74.339272 
	C147.091904,65.295319 148.920868,56.494743 153.788086,48.667652 
	C159.866623,38.892593 168.585953,33.501320 180.306183,34.019363 
	C190.877609,34.486633 199.386505,38.941795 203.913879,48.842243 
	C209.425964,60.896019 207.109711,72.365341 199.350098,82.630280 
	C196.292404,86.675186 192.032959,89.811653 187.796478,93.711914 
	C182.036728,96.803749 176.801239,99.545479 171.511841,102.315422 
	C172.337570,113.248764 176.600311,122.778999 183.540329,117.855270 
	C177.672424,106.791725 178.953339,101.668999 189.227249,95.111954 
M170.406509,82.633575 
	C170.798660,83.031487 171.312546,83.842262 171.565384,83.767708 
	C181.094635,80.958107 188.064072,61.216644 182.489594,52.964970 
	C180.510864,50.035931 177.104233,49.932392 175.238815,53.115170 
	C173.838776,55.503952 172.669586,58.264881 172.310867,60.980755 
	C171.398285,67.890030 170.998001,74.866966 170.406509,82.633575 
z"/>
    <path fill="#fefefe" opacity="1.000000" stroke="none" d="
M55.295246,127.304108 
	C43.904819,138.745483 18.819862,136.713303 9.529524,123.281769 
	C6.873875,119.442368 5.372400,114.225380 5.023105,109.515381 
	C4.577991,103.513290 7.570026,98.247871 13.774086,96.410599 
	C19.722992,94.648895 25.804535,94.835739 30.331287,100.055656 
	C34.521049,104.886963 35.483780,110.367332 32.585255,116.288757 
	C32.376480,116.715263 32.276978,117.195259 31.992228,118.057449 
	C36.613556,118.544167 38.463516,115.843025 39.081387,112.220322 
	C39.967712,107.023582 37.719902,102.801117 34.063541,99.255585 
	C29.161999,94.502625 23.587894,90.269676 19.497801,84.902603 
	C15.458823,79.602600 11.608659,73.509018 9.946479,67.168289 
	C4.796174,47.521389 18.121632,31.360924 38.433224,30.755934 
	C55.118526,30.258955 67.001915,41.341560 66.350060,58.003513 
	C66.232635,61.004818 65.160072,64.292534 63.565792,66.847244 
	C59.844360,72.810570 51.783478,74.744957 46.002270,71.620972 
	C40.137436,68.451782 37.513741,61.425110 39.927734,54.772564 
	C40.705257,52.629841 42.051544,50.693504 43.138912,48.663410 
	C37.943901,44.657284 32.206867,46.685062 31.025541,53.100132 
	C30.037680,58.464615 31.061195,63.478905 35.118507,67.380310 
	C38.833515,70.952568 42.843758,74.215683 46.652164,77.693573 
	C49.720562,80.495682 52.955894,83.180756 55.642872,86.323280 
	C66.743271,99.305618 66.627777,113.842308 55.295246,127.304108 
z"/>
    <path fill="#fefefe" opacity="1.000000" stroke="none" d="
M97.525330,38.850014 
	C101.528152,38.462811 105.530975,38.075603 109.861961,37.656658 
	C109.861961,27.863499 109.861961,17.775015 109.861961,7.316395 
	C117.776253,7.316395 125.658417,7.316395 133.973984,7.316395 
	C133.414291,17.394356 132.856186,27.443859 132.276443,37.883087 
	C136.734055,37.883087 140.957642,37.883087 145.658447,37.883087 
	C145.658447,46.049652 145.658447,54.103065 145.658447,62.424225 
	C141.113876,61.940113 136.556412,61.454624 131.784958,60.946342 
	C131.784958,85.472450 131.784958,109.516869 131.784958,133.808411 
	C124.131432,133.808411 116.206963,133.808411 107.798920,133.808411 
	C108.661865,109.556046 109.521484,85.397263 110.389442,61.004036 
	C105.860283,61.004036 101.936798,61.004036 97.564102,60.512817 
	C97.251701,52.964405 97.388512,45.907211 97.525330,38.850014 
z"/>
    <path fill="#21442C" opacity="1.000000" stroke="none" d="
M243.966797,54.962940 
	C241.685287,58.676567 238.800262,62.154411 237.239441,66.149590 
	C233.139114,76.645042 233.768204,87.696869 234.462509,98.697151 
	C235.173889,109.967842 235.788727,121.244637 236.492661,133.322678 
	C228.023743,133.984818 219.862061,134.622925 212.369858,135.208694 
	C212.369858,103.345123 212.369858,71.881088 212.369858,39.698841 
	C219.987015,39.698841 227.365982,39.782104 234.739624,39.620785 
	C236.040878,39.592312 237.399384,38.672703 238.596329,37.942993 
	C247.524918,32.499828 258.933868,32.808796 266.188110,38.752247 
	C273.514893,44.755135 275.838776,55.602077 271.969574,65.737534 
	C268.753784,74.161308 261.003998,78.202034 252.800339,75.732307 
	C245.558701,73.552200 241.941055,66.263786 243.791840,57.575329 
	C243.930420,56.924809 244.096359,56.280121 244.231506,55.375404 
	C244.303436,54.921165 244.393433,54.724243 244.483429,54.527313 
	C244.311218,54.672520 244.139008,54.817726 243.966797,54.962940 
z"/>
    <path fill="#20442C" opacity="1.000000" stroke="none" d="
M93.952805,105.007401 
	C93.952797,114.470566 93.952797,123.933731 93.952797,133.863800 
	C86.304840,133.863800 79.252083,133.863800 72.422012,133.863800 
	C71.475311,102.873886 70.526154,71.803627 69.549759,39.841797 
	C77.606941,39.841797 86.343559,39.841797 95.596542,40.319862 
	C95.760071,47.539692 95.407234,54.281460 95.054398,61.023224 
	C94.679283,73.038094 94.304169,85.052971 93.814240,97.854439 
	C93.783882,100.763161 93.868340,102.885277 93.952805,105.007401 
z"/>
    <path fill="#20442C" opacity="1.000000" stroke="none" d="
M86.718246,32.104706 
	C78.501587,34.334328 71.278519,30.628841 68.431816,23.030687 
	C65.971672,16.464270 69.321693,8.531818 75.863945,5.432301 
	C82.653465,2.215636 90.723137,4.715259 94.370544,11.164817 
	C98.149651,17.847244 96.195496,25.965492 89.684387,30.514477 
	C88.873787,31.080799 87.962784,31.503416 86.718246,32.104706 
z"/>
    <path fill="#EEF0EF" opacity="1.000000" stroke="none" d="
M188.967941,94.968674 
	C178.953339,101.668999 177.672424,106.791725 183.540329,117.855270 
	C176.600311,122.778999 172.337570,113.248764 171.511841,102.315422 
	C176.801239,99.545479 182.036728,96.803749 187.618591,93.992386 
	C188.212860,94.223633 188.460739,94.524513 188.967941,94.968674 
z"/>
    <path fill="#BEC8C1" opacity="1.000000" stroke="none" d="
M95.402985,61.008778 
	C95.407234,54.281460 95.760071,47.539692 96.065521,40.350727 
	C96.355415,39.564991 96.692688,39.226452 97.277649,38.868965 
	C97.388512,45.907211 97.251701,52.964405 97.129410,60.462227 
	C96.679802,60.933346 96.215691,60.963840 95.402985,61.008778 
z"/>
    <path fill="#BEC8C1" opacity="1.000000" stroke="none" d="
M94.206009,104.734200 
	C93.868340,102.885277 93.783882,100.763161 93.857834,98.321503 
	C94.163902,100.154984 94.311562,102.307991 94.206009,104.734200 
z"/>
    <path fill="#F1F3F2" opacity="1.000000" stroke="none" d="
M361.300415,107.502045 
	C364.516235,99.866646 371.227600,96.477219 377.407959,91.461555 
	C378.557037,99.834045 377.046417,106.578674 371.497894,111.761826 
	C369.697784,113.443390 366.433289,114.805389 364.235779,114.358887 
	C362.853851,114.078094 362.210236,110.163788 361.300415,107.502045 
z"/>
    <path fill="#F3F5F3" opacity="1.000000" stroke="none" d="
M170.399597,82.225197 
	C170.998001,74.866966 171.398285,67.890030 172.310867,60.980755 
	C172.669586,58.264881 173.838776,55.503952 175.238815,53.115170 
	C177.104233,49.932392 180.510864,50.035931 182.489594,52.964970 
	C188.064072,61.216644 181.094635,80.958107 171.565384,83.767708 
	C171.312546,83.842262 170.798660,83.031487 170.399597,82.225197 
z"/>
    <path fill="#FBFBFB" opacity="1.000000" stroke="none" d="
M243.948242,54.935677 
	C244.139008,54.817726 244.311218,54.672520 244.483429,54.527313 
	C244.393433,54.724243 244.303436,54.921165 244.054886,54.984787 
	C243.896347,54.851482 243.929672,54.908417 243.948242,54.935677 
z"/>
</svg>